<svg xmlns="http://www.w3.org/2000/svg" xmlns:xlink="http://www.w3.org/1999/xlink" viewBox="0 0 509.46 78.35"><defs><linearGradient id="linear-gradient" x1="87.79" y1="34.66" x2="109.16" y2="9.66" gradientUnits="userSpaceOnUse"><stop offset="0.24" stop-color="#ff7b23"></stop><stop offset="0.78" stop-color="#ff5623"></stop></linearGradient><linearGradient id="linear-gradient-2" x1="59.18" y1="61.8" x2="80.58" y2="36.77" xlink:href="#linear-gradient"></linearGradient><linearGradient id="linear-gradient-3" x1="14.07" y1="70.16" x2="61.83" y2="14.29" xlink:href="#linear-gradient"></linearGradient><linearGradient id="linear-gradient-4" x1="108.06" y1="55.47" x2="155.79" y2="-0.36" xlink:href="#linear-gradient"></linearGradient></defs><title>Beatpulse-horizon-white_2</title><g id="Layer_2" data-name="Layer 2"><g id="Layer_1-2" data-name="Layer 1"><g id="Beatpulse-horizon-white"><path d="M103.6,3.44a4.85,4.85,0,0,0-4.36,2.88L83.63,36.48l26-12.11L108.52,8.22A4.85,4.85,0,0,0,103.6,3.44Z" style="fill:url(#linear-gradient)"></path><path d="M57.63,48.42l1,16.15a4.85,4.85,0,0,0,9.28,1.9L83.63,36.31Z" style="fill:url(#linear-gradient-2)"></path><path d="M56.16,4.77A4.85,4.85,0,0,0,47.37,2l-41,55.72L.93,65.07a4.86,4.86,0,0,0,6,7.26L57.63,48.42l-.44-13.17Z" style="fill:url(#linear-gradient-3)"></path><path d="M166.8,2.8A4.85,4.85,0,0,0,160.33.46L135.72,12.07l-26.09,12.3h0l.44,13.17h0L111.18,68A4.85,4.85,0,0,0,120,70.77l46.29-63,.06-.08A4.87,4.87,0,0,0,166.8,2.8Z" style="fill:url(#linear-gradient-4)"></path><path d="M231.88,49.14c-1.37,6.52-7.26,13.51-17.69,13.51H194L204,15.4h18.72c8.44,0,12.76,5.08,11.25,12.21-.75,3.5-3.09,8.23-8.57,9.81C231.27,38.44,233.05,43.79,231.88,49.14Zm-9.39-1c.62-3-.69-6-5.21-6h-9.4l-2.53,12.07h9.25A7.67,7.67,0,0,0,222.49,48.18Zm-10.7-24.34L209.6,34.19h8.64c3,0,5.28-2,6-5.21.62-2.88-.41-5.14-3.77-5.14Z" style="fill:#fff"></path><path d="M270.83,49.55H246.7c.2,3.71,2.74,5.76,7.06,5.76a13.74,13.74,0,0,0,9.12-3.56L267.06,57a22.18,22.18,0,0,1-15.56,6.24c-9.81,0-15.64-6.72-13.51-16.6a21.21,21.21,0,0,1,20.57-16.8c9.12,0,15.22,6.45,13.17,16.25C271.52,47,271.25,48.11,270.83,49.55Zm-7.61-5.83c.55-3.77-2.12-6-6.17-6a9.59,9.59,0,0,0-9.12,6Z" style="fill:#fff"></path><path d="M315,30.69l-6.79,32h-9l.83-4a16.16,16.16,0,0,1-11.25,4.6c-8.23,0-14.4-6.38-12.21-16.67s11-16.66,19.27-16.66c3.71,0,7.75,1.37,9.33,4.6l.82-3.85ZM302.31,46.6c1.1-4.93-2.33-8.22-6.52-8.22a10.7,10.7,0,0,0-10.08,8.22c-1,4.67,2.06,8.3,6.59,8.3A10.66,10.66,0,0,0,302.31,46.6Z" style="fill:#fff"></path><path d="M341.4,37.62h-6.79l-5.28,25h-9l5.28-25H319.8l1.5-6.93h5.83L329.6,19h9l-2.46,11.72h6.79Z" style="fill:#fff"></path><path d="M380.28,46.6c-2.2,10.29-11,16.67-19.2,16.67-3.64,0-7.75-1.37-9.33-4.6l-4.18,19.68h-9l10.15-47.66h9l-.83,3.85a15.82,15.82,0,0,1,11.25-4.67C376.37,29.87,382.47,36.32,380.28,46.6Zm-9.19,0c1-4.66-1.92-8.29-6.45-8.29a10.74,10.74,0,0,0-10.08,8.29,6.51,6.51,0,0,0,6.59,8.23A10.48,10.48,0,0,0,371.09,46.6Z" style="fill:#fff"></path><path d="M421.7,30.69l-6.79,32h-9l1.1-5.21c-2.26,4.18-7.75,6-10.9,6-8.37,0-11.59-5.55-9.46-15.15l3.77-17.56h9l-3.57,16.6c-1,5,1.51,7.27,4.6,7.27s7.54-1.72,8.78-7.48l3.49-16.39Z" style="fill:#fff"></path><path d="M434.31,13.62h9l-10.36,49h-9Z" style="fill:#fff"></path><path d="M442.13,52.36h8.43c-.34,1.86.76,3.84,3.91,3.84,2.61,0,4.87-1.09,5.28-2.94.28-1.38-.68-2.06-2.95-2.68l-4-1c-7.75-2.19-7.89-6.79-7.13-10.15,1-4.93,7.13-9.53,14.53-9.53,5.83,0,12.07,2.88,10.43,10.43H462c.41-2.13-1.1-3.3-3.23-3.3s-3.91,1-4.25,2.68.89,2.26,2.54,2.74l5,1.37c7.27,2.06,7.21,6.86,6.66,9.47-1.44,6.72-9,10-15.57,10S440.69,59.43,442.13,52.36Z" style="fill:#fff"></path><path d="M508.17,49.55H484c.2,3.71,2.74,5.76,7.06,5.76a13.74,13.74,0,0,0,9.12-3.56L504.39,57a22.16,22.16,0,0,1-15.56,6.24c-9.81,0-15.64-6.72-13.51-16.6a21.21,21.21,0,0,1,20.57-16.8c9.12,0,15.22,6.45,13.17,16.25C508.85,47,508.58,48.11,508.17,49.55Zm-7.62-5.83c.55-3.77-2.12-6-6.17-6a9.59,9.59,0,0,0-9.12,6Z" style="fill:#fff"></path></g></g></g></svg>